<!DOCTYPE svg PUBLIC "-//W3C//DTD SVG 1.1//EN" "http://www.w3.org/Graphics/SVG/1.1/DTD/svg11.dtd">
<!-- Uploaded to: SVG Repo, www.svgrepo.com, Transformed by: SVG Repo Mixer Tools -->
<svg width="64px" height="64px" viewBox="-3.2 -3.2 22.40 22.40" xmlns="http://www.w3.org/2000/svg" fill="#000000">
<g id="SVGRepo_bgCarrier" stroke-width="0"/>
<g id="SVGRepo_tracerCarrier" stroke-linecap="round" stroke-linejoin="round"/>
<g id="SVGRepo_iconCarrier"> <path fill="#000000" fill-rule="evenodd" d="M11.3248,7.22461 C11.7513,6.58854 12,5.82332 12,5 C12,2.79086 10.2091,1 8,1 C5.79086,1 4,2.79086 4,5 C4,5.82332 4.24874,6.58854 4.67518,7.22461 C3.11714,7.77132 2,9.2552 2,11 L2,15 L14,15 L14,11 C14,9.2552 12.8829,7.77132 11.3248,7.22461 Z M10,5 C10,6.10457 9.10457,7 8,7 C6.89543,7 6,6.10457 6,5 C6,3.89543 6.89543,3 8,3 C9.10457,3 10,3.89543 10,5 Z M6,9 C4.89543,9 4,9.89543 4,11 L4,13 L12,13 L12,11 C12,9.89543 11.1046,9 10,9 L6,9 Z"/> </g>
</svg>